<?xml version="1.0" standalone="no"?>
<!DOCTYPE svg PUBLIC "-//W3C//DTD SVG 20010904//EN"
 "http://www.w3.org/TR/2001/REC-SVG-20010904/DTD/svg10.dtd">
<svg version="1.0" xmlns="http://www.w3.org/2000/svg"
 width="1280.000000pt" height="654.000000pt" viewBox="0 0 1280.000000 654.000000"
 preserveAspectRatio="xMidYMid meet">
<metadata>
Created by potrace 1.15, written by Peter Selinger 2001-2017
</metadata>
<g transform="translate(0.000000,654.000000) scale(0.100000,-0.100000)"
fill="#000000" stroke="none">
<path d="M7786 6524 c-38 -8 -123 -37 -190 -63 -274 -110 -589 -196 -896 -246
-418 -67 -789 -83 -1585 -67 -850 17 -1108 -1 -1400 -94 -296 -95 -483 -257
-686 -594 -308 -513 -589 -1458 -744 -2500 -14 -96 -28 -185 -31 -197 -3 -17
-37 -39 -143 -93 -590 -299 -1288 -911 -1768 -1549 -212 -281 -343 -538 -343
-671 0 -79 61 -140 140 -140 86 0 157 28 242 93 865 664 2803 1364 5378 1943
2252 507 4765 835 5923 775 256 -14 247 -16 279 56 38 86 -2 158 -139 250
-190 126 -542 258 -1183 441 -285 82 -806 222 -824 222 -9 0 -15 25 -20 78
-27 326 -300 967 -609 1432 -153 230 -273 376 -444 540 -195 188 -387 309
-580 365 -113 34 -276 42 -377 19z"/>
</g>
</svg>
