<?xml version="1.0"?><svg width="492.15" height="431.448" xmlns="http://www.w3.org/2000/svg">
 <g>
  <title>Layer 1</title>
  <g id="g5">
   <path d="m95.834,196.832993c-4.220001,-1.074997 -8.467003,-0.885986 -12.848,0.565002c-4.461998,1.397003 -10.026001,3.306 -13.494003,8.117004c-3.600998,4.785004 -7.122997,12.902008 -7.336998,20.723999c-0.242001,7.876007 3.037003,19.139008 6.209,25.697006c3.118004,6.342987 6.720001,10.294006 12.687004,12.57901c5.967995,2.230988 13.493996,2.392975 22.875,0.698975l0,0l-8.092003,-68.380997l0,0z" id="path25" stroke-miterlimit="10" stroke-width="0.036" stroke="black" fill-rule="evenodd"/>
   <path d="m93.226997,270.294006c6.747002,2.070007 11.504005,1.450989 14.487999,-1.855011c2.903,-3.438995 3.897003,-7.820984 3.090004,-18.115997c-0.913002,-10.481995 -5.590004,-33.867996 -8.223999,-43.597c-2.742004,-9.623001 -5.161003,-14.246994 -7.661003,-13.977005l0,0c-0.241997,2.769012 -0.806999,4.783005 -1.907997,6.155014c-1.128998,1.263992 -2.473,1.235992 -4.542,1.880997c-2.204002,0.644989 -5.538002,0.751999 -8.145004,2.069992c-2.687996,1.31601 -5.268997,2.069 -7.525993,5.671005c-2.312004,3.548004 -5.241005,9.595001 -5.887001,15.563004c-0.699005,5.912994 0.563995,14.514999 1.827995,19.567993c1.236,4.999008 3.603004,7.472 5.537003,10.212997c1.881996,2.554993 3.682999,4.300995 5.833,5.563995c2.124001,1.183014 4.650002,1.371002 6.639999,1.90802c1.853996,0.511993 3.547997,-0.322021 4.676003,1.235992c1.021996,1.506989 1.720001,4.006989 1.800995,7.716003l0,0z" id="path27" fill-rule="evenodd" fill="#e8ccba"/>
   <path d="m374.975006,198.016006c4.192993,-1.075012 8.440002,-0.887009 12.848999,0.563995c4.40799,1.397995 9.945007,3.306 13.492981,8.117996c3.494019,4.783997 7.123016,12.902008 7.364014,20.723007c0.082001,7.820999 -3.036987,19.192001 -6.234009,25.722992c-3.199005,6.345016 -6.773987,10.322006 -12.687988,12.552994c-5.993011,2.231018 -13.519989,2.393005 -22.873993,0.699005l0,0l8.089996,-68.37999l0,0z" id="path29" stroke-miterlimit="10" stroke-width="0.036" stroke="black" fill-rule="evenodd"/>
   <path d="m377.609985,271.47699c-6.77298,2.123016 -11.530975,1.479004 -14.487976,-1.828003c-2.983002,-3.46698 -3.951019,-7.73999 -3.117004,-18.115982c0.833008,-10.483002 5.51001,-33.868011 8.223999,-43.598007c2.687988,-9.649002 5.13501,-14.218994 7.661011,-14.002991l0,0c0.214996,2.768997 0.779999,4.783997 1.90799,6.154999c1.048981,1.235992 2.419983,1.289993 4.544006,1.90799c2.148987,0.591003 5.427979,0.751999 8.169983,2.042999c2.608002,1.236008 5.214996,2.123001 7.526001,5.671005c2.257996,3.548996 5.106018,9.595993 5.859009,15.563004c0.618988,5.914001 -0.617004,14.487991 -1.826996,19.595001c-1.291016,5.026993 -3.654999,7.417999 -5.537018,10.186996c-1.962982,2.525986 -3.735992,4.353989 -5.832977,5.590988c-2.178009,1.210022 -4.731018,1.317017 -6.640015,1.881012c-1.934998,0.484009 -3.628998,-0.268005 -4.675995,1.264008c-1.10199,1.503998 -1.694,4.031982 -1.774017,7.686981l0,0z" id="path31" fill-rule="evenodd" fill="#e8ccba"/>
   <path d="m91.667999,221.776993c-1.344002,-0.429993 -2.875999,-0.967987 -4.597,-0.778992c-1.799995,0.160995 -4.166,0 -5.751999,2.097c-1.639,2.149994 -3.736,6.774002 -3.817001,10.240997c-0.134003,3.306 1.585999,7.580002 3.414001,9.596008c1.801003,1.934998 5.537003,2.417999 7.472,1.960999c1.908997,-0.645004 2.849998,-4.812012 3.950996,-5.241013c1.021004,-0.431 2.393005,1.291 2.231003,2.876007c-0.187996,1.531998 -0.914001,5.509995 -3.414001,6.423996c-2.713997,0.887009 -9.057999,0.806 -12.069,-1.289993c-3.036995,-2.231003 -5.160995,-7.526001 -5.536995,-11.828003c-0.403,-4.380997 1.182999,-10.832993 3.413994,-14.057999c2.177002,-3.197998 6.666,-4.757004 9.730003,-5.106995c3.091003,-0.430008 6.853996,1.370987 8.386002,2.5c1.264,1.10199 0.349998,3.413986 -0.242004,3.923996c-0.615997,0.324005 -1.879997,-0.938995 -3.169998,-1.31601l0,0z" id="path33" stroke-miterlimit="10" stroke-width="0.036" stroke="black" fill-rule="evenodd"/>
   <path d="m374.868988,221.776993c1.263,-0.429993 2.794006,-0.967987 4.595001,-0.778992c1.747009,0.160995 4.113007,0 5.753021,2.097c1.585999,2.149994 3.654999,6.774002 3.815979,10.240997c0.055023,3.306 -1.638977,7.580002 -3.412994,9.596008c-1.854004,1.934998 -5.591003,2.417999 -7.472992,1.960999c-1.989014,-0.645004 -2.929993,-4.812012 -3.950989,-5.241013c-1.075012,-0.431 -2.47403,1.291 -2.231018,2.876007c0.108002,1.531998 0.860992,5.509995 3.414001,6.423996c2.63501,0.887009 9.005005,0.806 12.069,-1.289993c2.957001,-2.231003 5.07901,-7.526001 5.536987,-11.828003c0.34903,-4.380997 -1.237,-10.832993 -3.414978,-14.057999c-2.257019,-3.197998 -6.744995,-4.757004 -9.729004,-5.106995c-3.17099,-0.430008 -6.934998,1.370987 -8.386017,2.5c-1.343994,1.10199 -0.429993,3.413986 0.242004,3.923996c0.563019,0.324005 1.826996,-0.938995 3.171997,-1.31601l0,0z" id="path35" stroke-miterlimit="10" stroke-width="0.036" stroke="black" fill-rule="evenodd"/>
   <path d="m197.921997,57.922001c-2.580994,-6.021 -6.692993,-11.559002 -12.632996,-16.934002c-6.020996,-5.43 -14.649994,-13.278 -22.875,-15.051998c-8.333008,-1.774 -18.466003,-0.752001 -26.046005,4.515999c-7.552994,5.295002 -11.557999,18.653999 -18.949997,26.717999c-7.553001,7.902 -20.562996,12.284004 -25.668999,20.696999c-5.054001,8.440002 -6.667,17.982002 -4.731003,29.352005l0,0c-19.971001,9.326996 -33.115997,19.542 -40.264999,31.260994c-7.042,11.693008 -0.161999,25.320999 -1.961998,38.384003c-2.042999,12.956009 -5.16,24.917007 -9.460999,38.787003c-4.354002,13.869003 -13.789001,29.809998 -16.181002,43.463989c-2.392,13.493011 3.063999,25.535004 1.962,37.255005c-1.316999,11.610992 -5.59,19.595001 -9.085,32.360992c-3.548,12.769012 -14.595,29.058014 -11.45,43.680023c3.387,14.569 19.003,33.330994 31.178999,42.898987c12.15,9.462006 30.750002,13.682007 41.072004,13.17099c10.159996,-0.832977 8.896996,-11.960999 19.728996,-17.310974c10.806,-5.295013 34.271004,-9.192017 44.593002,-14.300018c10.106003,-5.213989 14.192001,-7.177002 16.181,-16.557983c1.962006,-9.488007 0.725998,-23.143005 -4.328003,-39.513c-5.214005,-16.558014 -23.088997,-42.334015 -26.448997,-58.354004c-3.306,-15.912018 2.257996,-27.470001 6.316994,-36.529007c3.951004,-9.085007 14.057999,-11.074005 17.363998,-17.686996c3.145004,-6.692001 1.694,-12.363998 1.962006,-22.201004c0.214996,-10 -4.031998,-24.809998 -0.403,-36.878998c3.656006,-12.203995 16.315994,-25.455002 22.121994,-34.997009c5.752014,-9.541992 9.757004,-14.37999 12.230011,-21.47699c2.418991,-7.149002 -0.081009,-15.913002 2.36499,-20.696007c2.393005,-4.784996 9.139008,-4.945999 11.854004,-7.525993c2.660995,-2.661003 3.897003,-5.161003 3.923996,-7.902l0,0c1.210007,9.810997 4.300003,17.254997 9.488998,22.953995c5.106003,5.564003 11.451004,8.628006 21.315002,10.53701c9.945007,1.880989 29.565994,-3.091011 37.496994,0.751999c7.634003,3.790001 5.96701,14.945007 8.681,21.852997c2.689026,6.746994 2.878021,12.606003 7.5,18.815994c4.597015,6.235001 13.011017,13.708008 19.730011,18.063004c6.610992,4.138992 15.643005,2.688004 19.729004,7.149994c3.979004,4.542007 0.618988,15.080002 4.326996,19.568008c3.735992,4.248001 13.977997,1.882004 17.768005,6.397003c3.682983,4.541992 5.376984,9.998993 4.35498,20.723999c-1.209991,10.724991 -9.811981,30.963989 -11.074982,42.899002c-1.235992,11.772003 2.445984,20.723999 3.574982,27.470001c1.10202,6.584991 4.542999,6.342987 2.742004,12.337982c-2.016998,5.914001 -11.450989,15.589996 -14.191986,23.331024c-2.661011,7.714996 -1.18399,15.052979 -1.989014,22.954987c-0.967987,7.902008 -2.016998,15.347992 -3.548004,24.083984c-1.694,8.682007 -7.257996,18.97702 -5.913971,27.686005c1.370972,8.60202 5.832977,19.891022 14.219971,23.708008c8.359009,3.709015 25.104004,-2.016998 35.507019,-1.505005c10.321991,0.402008 17.067993,3.548004 26.04599,4.139008c8.951019,0.59201 19.27301,2.178009 27.229004,-0.752991c7.821991,-3.118011 13.682007,-14.864014 19.756989,-17.311005c6.021027,-2.391998 9.891998,4.730988 16.181,3.010986c6.236023,-1.828003 15.348999,-5.376007 20.913025,-13.548004c5.536987,-8.306 13.277985,-22.899994 11.825989,-35.398987c-1.666016,-12.605988 -16.854004,-26.341003 -21.313995,-39.135986c-4.542999,-12.84903 -3.199005,-26.153015 -5.511017,-36.905029c-2.419983,-10.751984 -8.225983,-18.438995 -8.306,-27.094971c-0.080994,-8.736008 4.731018,-16.77301 7.902008,-24.836014c3.145996,-8.197998 10.644989,-12.526001 10.67099,-23.546005c-0.16098,-11.207993 -4.40799,-27.227997 -11.073975,-42.145996c-6.746002,-14.891006 -15.240021,-32.604004 -28.814026,-46.286003c-13.707977,-13.788994 -42.495972,-25.588997 -52.468994,-35.399994c-9.944,-9.838005 -5.268005,-16.316002 -6.718994,-22.955002c-1.479004,-6.666 2.257996,-11.181992 -1.963013,-16.558002c-4.353973,-5.456989 -7.820984,-7.660999 -23.679993,-15.831989c-16.048004,-8.33301 -55.345978,-28.035009 -71.445984,-33.304009c-16.072998,-5.268 -14.111023,-0.806 -24.486008,1.882c-10.535995,2.581 -28.600006,9.166 -37.496994,13.949999c-8.790009,4.704 -11.77301,8.037001 -14.972,14.676001c-3.255005,6.611 -4.707001,14.889999 -4.35701,24.943001l0,0z" id="path37" stroke-miterlimit="10" stroke-width="0.036" stroke="black" fill-rule="evenodd"/>
   <path d="m202.653,74.264c-1.182999,-7.123001 -1.854004,-16.880001 -1.182999,-23.977001c0.645004,-7.175999 2.391998,-13.708 5.132996,-18.438999c2.662003,-4.677 3.684006,-5.966999 11.046997,-9.785c7.312012,-3.924 24.138,-10.59 32.767014,-13.573c8.546982,-3.091 12.309982,-4.731 18.544998,-4.516c6.130005,0.161 9.031982,1.801 18.548004,5.644c9.595978,3.817 26.638,11.612 38.274994,16.959999c11.450989,5.242001 23.036011,10.215 30.399994,14.299999c7.285004,3.924 10.752991,5.591003 13.412994,9.785c2.580017,4.166 1.882019,9.864002 2.365021,15.428005c0.349976,5.509995 -0.968018,13.062996 0.402985,17.686996c1.371002,4.460999 1.209991,4.487999 7.902008,9.407997c6.720001,4.892006 22.419006,13.439003 31.959991,19.945c9.488007,6.370003 17.552002,11.073006 24.487,18.464996c6.800018,7.393005 11.610992,17.337006 16.181,25.589005c4.408997,8.171005 7.472992,14.460999 10.644989,23.223999c3.14502,8.681 7.769012,20.643997 8.279022,28.626007c0.376007,7.875 -2.769012,11.395996 -5.511017,18.438995c-2.794983,7.042007 -8.492981,16.718994 -10.67099,23.330994c-2.122986,6.505005 -2.850006,8.252014 -1.963013,15.725006c0.860016,7.498993 5.269012,19.138 7.097015,28.600006c1.692993,9.299988 0.645996,19.164001 3.171997,27.092987c2.472992,7.796021 8.277985,13.925018 11.825989,19.945007c3.468018,5.993988 7.016998,10.859009 9.085999,15.832001c2.070007,4.86499 3.494019,8.17099 3.14502,13.548004c-0.483002,5.401001 -2.177002,11.825989 -5.912994,18.437988c-3.897003,6.451019 -11.505005,17.122009 -16.584015,20.401001c-5.13501,3.14502 -9.569,-0.858978 -13.412994,-1.128998c-3.817017,-0.350006 -5.726013,-2.740997 -9.462006,-0.751984c-3.924011,1.988983 -8.842987,9.138977 -13.411987,12.444c-4.623016,3.251984 -7.365021,5.859985 -13.817017,6.773987c-6.610992,0.778992 -16.906006,-1.156006 -24.863007,-1.881989c-7.954987,-0.807007 -14.674988,-2.822021 -22.121002,-2.63501c-7.553986,0.161987 -15.750977,3.977997 -22.094971,3.763c-6.370026,-0.240997 -11.505005,-1.585999 -15.401001,-5.268005c-3.925018,-3.816986 -7.312012,-11.182007 -7.875,-17.337006c-0.619019,-6.208984 2.794983,-12.524994 4.326996,-19.567993c1.477997,-7.070007 3.574982,-14.112 4.72998,-22.578003c1.10202,-8.654999 -0.993988,-19.191986 1.988007,-28.600006c2.984009,-9.435974 14.084991,-20.401001 15.778015,-27.497986c1.559998,-7.177002 -5.106018,-8.466003 -6.31601,-15.053009c-1.290009,-6.746002 -2.20401,-16.315002 -1.183014,-24.459991c0.994019,-8.117004 5.026001,-14.084 7.123016,-23.707001c2.096985,-9.703995 6.182983,-26.395996 5.106995,-33.895996c-1.316986,-7.525009 -8.197998,-8.575012 -12.230011,-10.91301c-4.112,-2.391998 -9.272003,0.134003 -11.449982,-2.983994c-2.149994,-3.279999 0.214996,-11.772995 -1.183014,-15.832001c-1.479004,-4.031998 -3.117981,-6.100998 -7.5,-8.279007c-4.569,-2.337997 -13.653992,-2.229996 -18.949005,-5.26799c-5.294983,-3.064011 -8.573975,-7.983002 -12.22998,-12.794006c-3.735992,-4.891998 -6.854004,-9.595993 -9.460999,-16.181992c-2.555023,-6.692001 -3.871002,-18.547012 -5.914001,-23.332008c-2.123016,-4.756996 -1.559021,-4.299995 -6.721008,-5.268005c-5.373993,-1.074989 -17.255005,-0.726006 -24.459,-1.129005c-7.229996,-0.482994 -12.041992,0.915016 -18.169998,-1.504997c-6.182007,-2.554001 -14.164993,-7.957001 -18.143005,-13.197998c-4.003998,-5.262001 -4.43399,-11.040993 -5.535995,-18.056999l0,0l0,0.000008z" id="path39" stroke-miterlimit="10" stroke-width="0.036" stroke="black" fill-rule="evenodd" fill="#ffb600"/>
   <path d="m212.141006,41.337002c3.548996,-2.634003 14.917999,-9.220001 22.094986,-12.794003c6.989014,-3.709999 12.768005,-7.285 20.132004,-8.654999c7.445999,-1.371 13.843002,-2.257 24.057999,0.751999c10.080017,3.064001 26.744019,11.639 36.313019,17.311001c9.461975,5.536999 15.481995,8.008999 20.53598,15.804001c4.945007,7.742001 3.360016,21.610996 9.460999,30.507999c6.154999,8.762001 16.31601,13.816002 26.852997,22.201996c10.483002,8.414001 25.670013,16.208 35.507996,27.847c9.703003,11.531998 17.068024,27.874008 22.499023,41.044998c5.401001,13.089005 8.492004,24.64801 9.487,37.253998c0.778992,12.526001 -5.753021,23.896011 -4.354004,37.632004c1.371002,13.735001 11.182007,30.830002 12.632996,44.028c1.264008,13.01001 -5.993011,23.196991 -4.354004,33.894989c1.692993,10.698029 10.401001,20.778015 14.218994,29.729004c3.628998,8.870026 7.338013,15.615997 7.902008,23.143005c0.377014,7.5 -3.412994,18.037018 -4.730011,21.450012c-1.290985,3.199005 -3.144989,1.156006 -2.768982,-1.882019c0.350006,-3.116974 5,-9.756989 4.72998,-16.181c-0.431,-6.451996 -3.010986,-13.440002 -6.719971,-22.201996c-3.817017,-8.843994 -12.956024,-22.768005 -15.375,-30.481995c-2.365021,-7.712982 0.376984,-9.43399 1.18399,-15.832001c0.67099,-6.583984 4.246002,-14.029999 3.143982,-22.95401c-1.235992,-8.923981 -7.526001,-22.551971 -9.863983,-30.103973c-2.420013,-7.526016 -4.110992,-7.500015 -3.950989,-15.053009c0.214996,-7.687012 4.86499,-21.315002 5.134979,-30.508011c0.160004,-9.219986 -0.915009,-14.298996 -3.951996,-24.459991c-3.199005,-10.348007 -9.27301,-26.341003 -14.595001,-36.583008c-5.403992,-10.186996 -6.55899,-14.110992 -17.36499,-24.002991c-10.96701,-10 -37.362,-27.094002 -47.360992,-34.997002c-9.945007,-7.821999 -8.682007,-5.806 -11.854004,-11.774002c-3.226013,-6.153999 -4.139008,-17.766998 -7.096008,-24.378998c-3.011017,-6.531002 -3.520996,-9.757 -10.644012,-14.864002c-7.257996,-5.294998 -23.440002,-12.175999 -32.362,-16.181c-8.979004,-4.004999 -13.924988,-6.719999 -20.940979,-7.525999c-7.068024,-0.833 -14.003006,0.456999 -20.911011,2.713999c-7.014999,2.205 -14.541,7.338001 -20.507996,10.536999c-5.994003,3.118 -12.311005,7.338001 -14.999008,8.306004c-2.796997,0.884998 -4.679001,-0.163002 -1.18399,-2.743l0,0z" id="path41" stroke-miterlimit="10" stroke-width="0.036" stroke="black" fill-rule="evenodd"/>
   <path d="m222.382004,53.486c5.134003,0.403999 19.138,1.318001 30.804001,5.646c11.665009,4.327999 30.049988,14.729 38.678986,20.320004c8.413025,5.536995 4.783997,8.627998 12.230011,12.793999c7.498993,4.085999 24.057007,5.457001 32.362,11.666c8.144989,6.182999 10.804993,17.283997 16.583984,25.212997c5.699005,7.875 8.226013,14.057999 17.741028,21.852997c9.595978,7.686996 31.125,14.300003 39.080994,24.083008c7.768982,9.729996 7.123993,22.228989 7.501007,33.867996c0.213989,11.531006 -5.348999,22.444 -5.512024,35.022995c-0.132996,12.472992 3.415009,27.686005 4.731018,39.511993c1.263977,11.667023 4.220978,17.714996 2.742004,30.482025c-1.641022,12.73999 -11.183014,31.582001 -12.230011,45.640991c-1.048004,14.031006 5.321991,30.884979 5.940002,37.927002c0.510986,6.90799 -0.807007,9.380981 -2.393005,3.386993c-1.692993,-6.343994 -7.203003,-27.52301 -7.096008,-39.889008c0.106018,-12.36499 5.644012,-23.895996 7.902008,-33.141998c2.149994,-9.27301 5.213989,-11.505005 5.134003,-21.826996c-0.187988,-10.455994 -4.489014,-28.841003 -5.940002,-39.808014c-1.451996,-10.96698 -3.226013,-17.228989 -2.742004,-25.319992c0.403015,-8.062988 4.221008,-14.541992 5.13501,-22.955994c0.779999,-8.574005 1.747986,-20.104996 0,-27.845993c-1.828003,-7.769012 -3.306,-12.257004 -10.671997,-18.440002c-7.498016,-6.290009 -25.938019,-13.358002 -33.545013,-18.734009c-7.634003,-5.403 -6.395996,-5.778992 -11.854004,-13.250992c-5.536987,-7.634003 -14.406982,-24.917 -20.911987,-31.530006c-6.585999,-6.639 -11.907013,-5.402 -18.144012,-7.902c-6.342987,-2.527 -14.487976,-4.085999 -19.352997,-7.176994c-4.785004,-3.226006 -5,-8.118004 -9.462006,-11.666c-4.515991,-3.575005 -10.401978,-5.940002 -17.767975,-9.488998c-7.634003,-3.602005 -18.547012,-9.354004 -26.825012,-11.960003c-8.279007,-2.662003 -18.384995,-2.769001 -22.121994,-3.844002c-3.73201,-1.127998 -5.184006,-3.143997 0.003998,-2.633999l0,0z" id="path43" stroke-miterlimit="10" stroke-width="0.036" stroke="black" fill-rule="evenodd"/>
   <path d="m216.871994,65.903999c3.199005,3.171997 8.790009,19.112 18.950012,24.084c10.212997,4.864998 31.931992,1.854004 41.822983,4.972c9.758026,3.064003 10.242004,4.705002 16.585999,13.197998c6.343018,8.547005 13.653015,28.788002 20.911011,37.174004c7.230011,8.171005 16.368988,5.483002 21.717987,11.746002c5.107025,6.209 5.457001,19.621994 9.462006,25.212997c4.032013,5.429993 9.139008,4.272995 14.596008,7.526001c5.321991,3.225006 9.86499,9.783997 17.364014,11.692001c7.524994,1.720993 23.143982,-1.263 27.254974,-0.860001c3.871002,0.431 0.296021,2.393005 -3.573975,3.386993c-4.005005,0.94101 -14.005005,2.768997 -19.730011,2.257004c-5.725006,-0.619003 -10.213989,-3.332993 -14.19101,-5.645004c-3.979004,-2.36499 -5.778992,-5.644989 -9.86499,-8.278992c-4.220001,-2.714996 -10.912994,-2.042999 -14.998016,-7.526001c-4.112,-5.591003 -5.967987,-20.078995 -9.487976,-25.212997c-3.628998,-5.106003 -7.740997,-2.715012 -11.826019,-5.268005c-4.140991,-2.634003 -8.278992,-3.979004 -12.634979,-10.160004c-4.407013,-6.343994 -8.708008,-19.702995 -13.412018,-27.120995c-4.730988,-7.526001 -7.983002,-13.413002 -14.621979,-16.933998c-6.747009,-3.494003 -18.036011,-2.715004 -25.268021,-3.763c-7.311996,-1.048004 -13.008987,-1.129005 -18.141998,-2.634003c-5.187988,-1.639999 -9.085999,-3.038002 -12.634003,-6.774002c-3.628998,-3.923996 -7.283997,-12.202995 -8.681992,-15.805c-1.507004,-3.626999 -2.824005,-8.357998 0.401993,-5.266998l0,0z" id="path45" stroke-miterlimit="10" stroke-width="0.036" stroke="black" fill-rule="evenodd" fill="black"/>
   <path d="m374.356995,222.557999c0.188019,4.999008 7.984009,24.324997 6.692017,37.658005c-1.423004,13.251007 -13.412018,28.222992 -14.595001,41.393982c-1.183014,13.036011 8.815979,20.133026 7.498993,36.529022c-1.532013,16.395996 -14.084991,51.716003 -15.778015,60.960999c-1.639984,8.924988 2.608002,3.89798 5.914001,-6.772003c3.253021,-10.886017 12.391022,-42.496002 13.412018,-57.199005c0.807983,-14.648987 -7.875,-21.100006 -7.902008,-30.131989c0,-9.085022 5.403015,-16.154022 7.902008,-23.707001c2.419983,-7.661011 6.316986,-12.983002 6.720001,-21.450012c0.216003,-8.574997 -3.063019,-22.685989 -4.757996,-28.974991c-1.666016,-6.292007 -5.402008,-13.174011 -5.106018,-8.307007l0,0z" id="path47" stroke-miterlimit="10" stroke-width="0.036" stroke="black" fill-rule="evenodd"/>
   <path d="m345.919006,409.635986c2.337982,1.291016 3.225006,6.129028 9.084991,6.425018c5.886017,0.187988 18.306,-5.429993 26.045013,-4.920013c7.580994,0.484009 11.881989,7.822021 19.729004,7.930023c7.901978,0 24.487,-7.499023 27.255981,-7.552002c2.526001,-0.136017 -6.369995,5.536987 -11.449982,7.175995c-5.134003,1.666992 -13.493011,3.307007 -18.950012,2.634979c-5.51001,-0.832977 -8.97699,-6.504974 -13.815002,-7.149994c-4.919006,-0.671997 -9.919006,2.527008 -15.402008,3.386993c-5.697998,0.726013 -13.062988,3.091003 -17.738983,1.505005c-4.678009,-1.612 -9.113007,-9.406982 -9.893005,-10.938995c-0.752014,-1.613983 2.686981,0.132996 5.134003,1.502991l0,0z" id="path49" stroke-miterlimit="10" stroke-width="0.036" stroke="black" fill-rule="evenodd"/>
   <path d="m377.904999,403.993011c-1.10199,2.928986 -4.246002,12.14798 -4.354004,14.298981c-0.13501,2.097015 2.391998,0.914001 3.548004,-1.880981c1.075012,-3.011017 2.553009,-13.333008 2.769012,-15.429016c0.052979,-2.042999 -0.914001,0.026001 -1.963013,3.011017l0,0z" id="path51" stroke-miterlimit="10" stroke-width="0.036" stroke="black" fill-rule="evenodd"/>
   <path d="m394.328003,409.341003c-1.854004,2.579987 -7.256989,10.804993 -7.901001,12.848999c-0.671997,1.962006 2.122009,1.531006 3.924011,-0.994995c1.773987,-2.634003 5.939972,-12.338013 6.691986,-14.300018c0.618988,-2.016998 -0.94101,-0.16098 -2.714996,2.446014l0,0z" id="path53" stroke-miterlimit="10" stroke-width="0.036" stroke="black" fill-rule="evenodd"/>
   <path d="m236.197998,115.120003c2.930008,-0.510002 8.682999,-0.268005 13.412003,0c4.597992,0.241997 12.095993,0.778999 14.219986,1.505997c2.042999,0.646004 1.425018,1.881004 -1.962982,2.257004c-3.574005,0.214996 -13.520004,-0.591003 -18.546005,-0.752007c-5.026001,-0.214996 -9.891998,0.108002 -11.074005,-0.375999c-1.237,-0.564995 1.048004,-2.203995 3.951004,-2.634995l0,0z" id="path55" stroke-miterlimit="10" stroke-width="0.036" stroke="black" fill-rule="evenodd"/>
   <path d="m267.377014,118.883003c0,1.237 0.886993,2.257996 1.988983,2.257996c1.075012,0 1.962006,-1.020996 1.962006,-2.257996c0,-1.236 -0.886993,-2.257004 -1.962006,-2.257004c-1.10199,0 -1.988983,1.021004 -1.988983,2.257004l0,0z" id="path57" stroke-miterlimit="10" stroke-width="0.036" stroke="black" fill-rule="evenodd"/>
   <path d="m300.546997,172.347c1.800995,0.188004 6.263,2.822998 9.460999,3.763c3.226013,0.807007 7.634003,0.751999 9.488007,1.505005c1.692993,0.778992 2.472992,2.714996 0.778992,3.011002c-1.934998,0.133987 -7.821991,-0.940002 -11.449982,-1.881012c-3.574005,-1.020996 -8.521027,-2.687988 -9.864014,-3.763c-1.371002,-1.102997 -0.324005,-2.849991 1.585999,-2.634995l0,0z" id="path59" stroke-miterlimit="10" stroke-width="0.036" stroke="black" fill-rule="evenodd"/>
   <path d="m195.556,58.379002c-3.869995,-5.349003 -7.983002,-10.134003 -12.632996,-14.677002c-4.650009,-4.596001 -9.542007,-9.917999 -14.999008,-12.445c-5.537003,-2.552999 -12.686996,-3.468 -18.14299,-2.635c-5.618011,0.753 -10.859009,3.118 -14.999008,7.525999c-4.220001,4.462002 -4.945999,13.063 -9.863998,18.843002c-5.027,5.725998 -14.407997,10.777996 -19.729996,15.052998c-5.349007,4.084999 -9.166,5.510002 -11.854004,9.784004c-2.661003,4.247993 -3.495003,10.832001 -3.950996,15.805c-0.564003,4.945 -0.296005,9.326996 0.806999,13.546997l0,0c-12.042,5.967003 -21.315002,11.827003 -28.438004,17.686996c-7.124001,5.833 -11.557999,8.708 -13.815998,17.336998c-2.257999,8.602005 1.370998,23.654007 0.402,33.868011c-1.075001,10.052994 -3.413002,16.099991 -6.719002,26.340988c-3.467999,10.322006 -9.973,25.428009 -13.413,34.729004c-3.521,9.085007 -6.369999,12.444 -7.095999,19.944c-0.699001,7.5 2.365,17.713013 2.768999,24.835999c0.269001,6.962006 0.618999,9.864014 -0.806,17.311005c-1.559,7.417999 -4.569,17.390991 -7.875,27.121002c-3.36,9.756989 -10.188,22.497009 -11.854,30.856995c-1.613,8.225006 -0.807,11.746002 1.989,18.438995c2.875999,6.692017 9.246,14.756012 14.972,21.071991c5.645,6.10202 11.933998,11.721008 18.574001,15.832001c6.531998,4.086029 14.299999,6.936005 20.508999,8.655029c6.181999,1.720978 12.095001,2.66098 16.181,1.585999c3.923996,-1.210022 4.973,-5.456024 7.499001,-8.278015c2.392998,-2.902985 0.995003,-5.859985 7.124001,-8.654999c6.181999,-2.79599 20.75,-5.079987 29.594002,-8.01001c8.682991,-2.957001 17.284004,-5.214996 22.497993,-9.785004c5.134003,-4.702972 7.930008,-9.405975 8.279007,-18.062988c0.214996,-8.761993 -2.337997,-22.604004 -6.317001,-33.867004c-4.059006,-11.423981 -12.956009,-23.492981 -17.363998,-33.519989c-4.408005,-9.998016 -7.580002,-17.686005 -8.682007,-25.964996c-1.128998,-8.412994 -1.020996,-16.182007 1.989006,-23.707001c3.037994,-7.553009 11.827003,-16.129013 15.777992,-21.074005c3.763,-5.026001 5.645004,-4.380997 7.096008,-8.656006c1.397003,-4.246002 1.477997,-8.306 1.585999,-16.959991c0.026993,-8.924011 -2.445999,-26.100006 -1.182999,-35.45401c1.235992,-9.271988 4.166992,-12.391998 8.681992,-19.944c4.462006,-7.713989 13.762009,-18.57399 18.143005,-25.616997c4.166992,-7.069 5.940002,-10.321999 7.5,-16.181c1.533005,-5.912994 -0.052994,-14.326996 1.988998,-18.816002c2.016998,-4.515999 7.016006,-5.213997 10.240997,-7.901993c3.171997,-2.742004 7.661011,-3.951004 8.682999,-8.279007c0.911011,-4.405998 -0.136993,-10.157997 -3.147995,-17.682995l0,0z" id="path61" stroke-miterlimit="10" stroke-width="0.036" stroke="black" fill-rule="evenodd" fill="#ffb600"/>
   <path d="m183.729004,51.980999c-2.984009,-2.149998 -12.203003,-8.438999 -18.949997,-10.16c-6.720001,-1.719997 -15.294006,-2.688 -20.939011,0c-5.644989,2.580002 -7.041992,5.806 -13.009003,15.805c-6.154991,10.107002 -14.191994,31.905998 -23.277992,44.028999c-9.193001,12.014 -22.498001,18.545998 -30.804001,27.470001c-8.333,8.843002 -16.343002,17.121994 -18.547001,25.238998c-2.203999,8.063004 4.167,19.111008 5.536999,22.578995c1.344002,3.252014 2.822998,0.645004 2.366005,-2.633987c-0.564003,-3.360001 -6.209003,-11.31601 -5.537003,-16.934006c0.618,-5.645004 3.682999,-10.052994 9.488998,-16.557999c5.806,-6.693008 18.089005,-15.778 25.238998,-22.605003c7.069,-6.799995 11.424004,-9.380997 16.987,-17.686996c5.457001,-8.467003 10.994003,-23.142998 15.778999,-31.986c4.677002,-8.897003 8.197998,-16.02 12.633011,-20.321003c4.380997,-4.272999 8.842987,-4.837997 13.815994,-4.891998c4.918991,-0.081001 11.181992,2.633999 15.778,4.515999c4.569992,1.827999 9.112991,5.617001 11.451004,6.396999c2.231995,0.591003 4.730988,-0.160999 1.988998,-2.257999l0,0z" id="path63" stroke-miterlimit="10" stroke-width="0.036" stroke="black" fill-rule="evenodd"/>
   <path d="m188.057999,59.131001c-4.059006,-0.915001 -18.923004,-3.091999 -26.046005,-1.882c-7.203995,1.237 -10.106995,0.646 -16.584,9.408997c-6.584991,8.843002 -15.885986,25.804001 -22.094994,42.899002c-6.263,17.068001 -7.526001,40.909996 -14.999001,58.353996c-7.634003,17.257004 -23.332001,30.804001 -29.998001,44.781006c-6.720001,13.895996 -10.590996,22.819992 -9.864998,38.492004c0.725998,15.749985 12.686996,38.624008 14.219002,54.939987c1.396996,16.182007 -3.251999,28.08902 -5.537003,41.421021c-2.365997,13.251984 -9.407997,28.491974 -8.278999,37.631989c1.101997,9.003998 12.283997,13.950012 14.999001,16.181c2.634003,2.042999 2.311996,-1.640015 0.779999,-3.386993c-1.693001,-1.800995 -7.983002,-4.085022 -10.267998,-7.149994c-2.312004,-3.14502 -3.978004,-4.973022 -3.145004,-11.289001c0.941002,-6.505005 6.021004,-18.386017 8.278999,-26.718018c2.07,-8.278992 3.172005,-14.220001 4.354004,-22.57901c1.102997,-8.492981 3.547997,-18.681 2.365997,-27.873993c-1.237,-9.326996 -6.988998,-18.356995 -9.488998,-27.093994c-2.526001,-8.734985 -5.537003,-16.181 -5.510002,-24.834991c-0.027,-8.736008 1.398003,-17.60701 5.510002,-27.122009c4.112999,-9.649994 13.573997,-22.175995 18.949997,-30.104996c5.295006,-7.956009 8.924004,-10.268005 12.634003,-17.391006c3.574997,-7.203003 6.290001,-14.728989 9.084999,-25.587997c2.769005,-11.048004 3.924004,-28.437996 7.5,-39.540001c3.493004,-11.128998 9.245995,-18.976997 13.411995,-26.341995c4.059006,-7.365005 7.5,-13.278999 11.047012,-17.310005c3.386993,-4.138996 4.945999,-5.671997 9.86499,-6.773998c4.917999,-1.101997 15.268005,0.027 19.729004,0.376011c4.408005,0.241989 5.162003,1.74699 6.720001,1.505989c1.505005,-0.295998 6.235992,-2.230999 2.365997,-3.010998l0,0z" id="path65" stroke-miterlimit="10" stroke-width="0.036" stroke="black" fill-rule="evenodd"/>
   <path d="m190.423004,68.539001c-4.328003,0.375999 -18.574005,0.671997 -24.084,6.396996c-5.429001,5.806 -5.697998,19.407005 -8.279007,27.847c-2.688004,8.306 -3.009995,13.440002 -7.498993,21.826004c-4.650009,8.226006 -16.235001,17.310997 -19.729004,27.874001c-3.441002,10.617996 -0.833008,24.621994 -1.182999,35.373001c-0.457001,10.645004 1.505005,20.052002 -1.585007,28.222992c-3.225998,8.011002 -11.154999,14.837006 -17.363998,19.971008c-6.236,5.082001 -17.444,8.628998 -19.728996,10.537003c-2.364998,1.935989 1.880997,2.257996 5.913002,0.751999c4.058998,-1.747009 12.875,-6.503998 18.169998,-10.536011c5.160995,-4.085999 10.080002,-8.520996 13.009995,-13.197998c2.848999,-4.569 3.682007,-6.155991 4.354004,-14.298996c0.565002,-8.386002 -0.645004,-25.856995 -0.403,-34.996994c0.188004,-9.113007 0.563995,-14.354004 1.962006,-19.568008c1.317001,-5.322998 2.903,-7.229996 6.317001,-12.041992c3.412994,-4.891998 10.535995,-11.128006 13.815994,-16.961006c3.145004,-5.913002 3.332993,-11.208 5.134003,-18.062996c1.748001,-6.935005 3.627991,-17.525002 5.537003,-22.956001c1.880997,-5.456001 2.472992,-7.284004 5.912994,-9.407005c3.440002,-2.149994 11.074005,-2.929993 14.595993,-3.386993c3.414001,-0.484001 4.972,0.888 5.91301,0.375999c0.886002,-0.618004 3.251999,-4.219002 -0.779999,-3.762001l0,0z" id="path67" stroke-miterlimit="10" stroke-width="0.036" stroke="black" fill-rule="evenodd"/>
   <path d="m60.569,198.391998c-2.312,8.091003 -5.510002,27.391006 -10.644001,45.156998c-5.242001,17.822006 -15.617001,43.250015 -20.132999,60.613998c-4.542,17.175995 -7.365,29.324005 -6.719999,42.145996c0.671999,12.742004 5.886999,26.772003 10.671,33.895996c4.676998,6.936005 12.741001,8.709015 17.363998,7.903015c4.569,-0.967987 8.790001,-11.020996 9.865002,-13.17099c0.914001,-2.150024 -2.338001,-1.130005 -3.951,0.375977c-1.612999,1.505005 -3.306,6.827026 -5.914001,8.279022c-2.821999,1.263 -6.933998,2.311005 -10.267998,-0.377014c-3.359001,-2.821991 -7.096001,-9.191986 -9.461,-15.804993c-2.446001,-6.666992 -4.757999,-14.675995 -4.757999,-23.734009c0.026999,-9.139984 1.747999,-18.197998 4.757999,-30.480988c2.902998,-12.472015 8.735998,-30.399994 12.633001,-42.899017c3.762997,-12.444977 7.042,-20.723984 10.240997,-31.260986c3.171001,-10.669998 7.069,-24.64801 8.681999,-31.986008c1.398003,-7.36499 0.806004,-10.213989 0.403004,-11.664993c-0.403004,-1.507996 -0.564003,-5.029007 -2.768002,3.007996l0,0z" id="path69" stroke-miterlimit="10" stroke-width="0.036" stroke="black" fill-rule="evenodd"/>
   <path d="m106.747002,258.60199c-0.321999,6.263 -0.697998,26.584015 1.988998,38.035004c2.741997,11.395996 9.273003,20.723999 14.193001,29.729004c4.837997,8.843994 12.498001,15.132996 14.595001,23.330994c1.880997,8.197998 -2.660995,20.481995 -2.742004,25.240021c-0.108002,4.515991 1.479004,4.78299 2.365005,2.256989c0.914001,-2.687988 2.285004,-12.175995 2.768997,-17.686005c0.403,-5.484009 1.720001,-9.783997 -0.403,-15.07901c-2.339005,-5.431 -8.789001,-9.973999 -13.036003,-16.934998c-4.246994,-7.122986 -9.326996,-16.746002 -12.229996,-24.835999c-2.903,-8.144989 -4.515999,-16.127991 -5.134003,-23.332001c-0.617996,-7.283997 1.504997,-16.100983 1.181999,-19.593994c-0.509995,-3.467987 -3.278999,-7.338989 -3.547997,-1.130005l0,0z" id="path71" stroke-miterlimit="10" stroke-width="0.036" stroke="black" fill-rule="evenodd"/>
   <path d="m20.707001,388.294006c3.844,4.596985 13.573997,15.886993 20.912998,20.696991c7.284,4.70401 17.391003,6.584991 22.121002,7.526001c4.569996,0.806 7.149998,-1.290009 5.133999,-2.257996c-2.231003,-1.075989 -12.096001,-1.264008 -17.768002,-3.763c-5.697998,-2.608002 -10.481998,-6.505005 -15.805,-11.290009c-5.536999,-4.891998 -13.626999,-15.428986 -16.180998,-17.311005c-2.5,-1.798004 -2.177,1.75 1.586,6.399017l0,0z" id="path73" stroke-miterlimit="10" stroke-width="0.036" stroke="black" fill-rule="evenodd"/>
   <path d="m35.301998,392.459991c-0.482998,2.688019 -1.934998,11.263 -1.665997,13.171021c0.241997,1.773987 2.257999,0.537994 2.848999,-2.150024c0.457001,-2.714996 0.242001,-12.121979 0.081001,-13.922974c-0.242001,-1.828003 -0.807003,0.107971 -1.264004,2.901978l0,0z" id="path75" stroke-miterlimit="10" stroke-width="0.036" stroke="black" fill-rule="evenodd"/>
   <path d="m43.984001,400.014008c-0.484001,2.714996 -1.936001,11.208984 -1.667,13.143982c0.241997,1.77301 2.257999,0.538025 2.849998,-2.149994c0.429001,-2.714996 0.295002,-12.122009 0.106998,-13.923004c-0.240997,-1.774994 -0.806,0.132996 -1.289997,2.929016l0,0z" id="path77" stroke-miterlimit="10" stroke-width="0.036" stroke="black" fill-rule="evenodd"/>
   <path d="m127.820999,258.737c0.403,-2.824005 1.236008,-5.914001 3.225998,-8.656998c1.908005,-2.742004 6.934998,-6.854004 8.546997,-7.660004c1.585999,-0.860992 2.527008,0.268997 1.075012,2.553009c-1.586014,2.177994 -8.118011,7.095993 -10.160004,10.725998c-2.070007,3.60199 -1.721008,10.105988 -2.150009,10.696991c-0.510994,0.403992 -0.967995,-4.916992 -0.537994,-7.658997l0,0z" id="path79" stroke-miterlimit="10" stroke-width="0.036" stroke="black" fill-rule="evenodd"/>
   <polyline fill="none" stroke="black" stroke-width="0.036" stroke-dasharray="null" stroke-linejoin="null" stroke-linecap="round" opacity="0.5" points="139.85 127.552 139.85 128.552 140.85 129.552 141.85 131.552 142.85 132.552 142.85 133.552 143.85 134.552 144.85 135.552 145.85 135.552 145.85 137.552 146.85 137.552 147.85 139.552 148.85 140.552 149.85 140.552 150.85 142.552 150.85 143.552 151.85 143.552 151.85 145.552 151.85 146.552 153.85 148.552 153.85 149.552 154.85 150.552 154.85 151.552 154.85 152.552 154.85 153.552 154.85 154.552 154.85 155.552 154.85 157.552 153.85 159.552 153.85 160.552 153.85 161.552 152.85 163.552 152.85 164.552 152.85 165.552 152.85 166.552 152.85 167.552 152.85 169.552 154.85 170.552 157.85 174.552 161.85 176.552 166.85 179.552 173.85 183.552 180.85 188.552 187.85 192.552 192.85 197.552 197.85 202.552 201.85 206.552 202.85 211.552 204.85 216.552 205.85 223.552 206.85 228.552 206.85 234.552 206.85 239.552 205.85 244.552 204.85 248.552 203.85 251.552 202.85 253.552 201.85 255.552 200.85 257.552 198.85 259.552 197.85 260.552 197.85 262.552 196.85 262.552 196.85 264.552 195.85 265.552 194.85 266.552 193.85 267.552 193.85 268.552 192.85 268.552 192.85 270.552 192.85 271.552 191.85 273.552 190.85 275.552 190.85 276.552 190.85 278.552 190.85 281.552 190.85 284.552 191.85 288.552 192.85 292.552 192.85 293.552 192.85 294.552" id="svg_5"/>
   <polyline fill="none" stroke="black" stroke-width="0.036" stroke-dasharray="null" stroke-linejoin="null" stroke-linecap="round" opacity="0.5" points="160.85 131.552 161.85 131.552 162.85 131.552 164.85 131.552 166.85 132.552 167.85 132.552 168.85 132.552 169.85 133.552 169.85 134.552 169.85 136.552 169.85 138.552 169.85 143.552 169.85 148.552 168.85 152.552 167.85 156.552 166.85 158.552 166.85 160.552 166.85 161.552 165.85 162.552 164.85 163.552 164.85 165.552 163.85 166.552 163.85 167.552 163.85 168.552 163.85 169.552 163.85 172.552 165.85 174.552 168.85 178.552 174.85 184.552 182.85 194.552 190.85 202.552 198.85 212.552 204.85 220.552 209.85 229.552 212.85 237.552 214.85 243.552 214.85 247.552 214.85 252.552 213.85 259.552 210.85 267.552 206.85 274.552 202.85 282.552 199.85 289.552 196.85 294.552 194.85 297.552 193.85 299.552 191.85 300.552" id="svg_6"/>
   <polyline fill="none" stroke="black" stroke-width="0.036" stroke-dasharray="null" stroke-linejoin="null" stroke-linecap="round" opacity="0.5" points="301.85 145.552 301.85 144.552 300.85 144.552 296.85 143.552 289.85 143.552 275.85 147.552 254.85 155.552 236.85 164.552 218.85 174.552 202.85 184.552 190.85 193.552 186.85 197.552 186.85 198.552 188.85 200.552 191.85 202.552 198.85 207.552 207.85 213.552 218.85 221.552 227.85 229.552 235.85 236.552 243.85 246.552 246.85 253.552 246.85 259.552 246.85 265.552 246.85 272.552 241.85 281.552 236.85 290.552 230.85 298.552 225.85 305.552 220.85 311.552 214.85 317.552 209.85 322.552 203.85 327.552 198.85 330.552 194.85 333.552 194.85 334.552 194.85 335.552 195.85 338.552 200.85 343.552 209.85 351.552 219.85 358.552 230.85 366.552 236.85 370.552 235.85 372.552" id="svg_7"/>
   <polyline fill="none" stroke="black" stroke-width="0.036" stroke-dasharray="null" stroke-linejoin="null" stroke-linecap="round" opacity="0.5" points="221.85 138.552 216.85 136.552 214.85 136.552 207.85 138.552 196.85 142.552 183.85 148.552 167.85 158.552 154.85 165.552 141.85 172.552 132.85 178.552 126.85 183.552 121.85 187.552 119.85 190.552 117.85 196.552 117.85 199.552 117.85 203.552 120.85 210.552 127.85 219.552 137.85 228.552 152.85 239.552 165.85 248.552 180.85 259.552 189.85 268.552 194.85 276.552 195.85 282.552 195.85 284.552 193.85 289.552 191.85 293.552 185.85 298.552 180.85 304.552 175.85 308.552 171.85 311.552 166.85 314.552 164.85 315.552 162.85 315.552 161.85 315.552 160.85 315.552 156.85 314.552 153.85 313.552 150.85 310.552" id="svg_8"/>
   <polyline fill="none" stroke="black" stroke-width="0.036" stroke-dasharray="null" stroke-linejoin="null" stroke-linecap="round" opacity="0.5" points="71.85 119.552 71.85 120.552 71.85 121.552 71.85 122.552 71.85 123.552 71.85 124.552 71.85 125.552 71.85 126.552 71.85 128.552 71.85 131.552 73.85 133.552 76.85 138.552 83.85 143.552 90.85 148.552 99.85 152.552 108.85 156.552 115.85 159.552 118.85 161.552 120.85 163.552 121.85 165.552 121.85 166.552 121.85 169.552 121.85 175.552 120.85 183.552 116.85 194.552 110.85 205.552 104.85 216.552 99.85 227.552 94.85 238.552 90.85 247.552 88.85 254.552 85.85 259.552 84.85 262.552 84.85 264.552 84.85 265.552 84.85 266.552 90.85 270.552 101.85 277.552 116.85 283.552 131.85 290.552 141.85 295.552 146.85 298.552 148.85 301.552 148.85 302.552 148.85 306.552 148.85 307.552 147.85 310.552 145.85 313.552 144.85 316.552 141.85 321.552 140.85 324.552 138.85 326.552 138.85 329.552 137.85 329.552 137.85 331.552" id="svg_9"/>
   <polyline fill="none" stroke="black" stroke-width="0.036" stroke-dasharray="null" stroke-linejoin="null" stroke-linecap="round" opacity="0.5" points="240.85 98.552 241.85 99.552 247.85 99.552 252.85 100.552 261.85 103.552 271.85 108.552 283.85 113.552 294.85 119.552 303.85 128.552 313.85 142.552 320.85 155.552 325.85 170.552 328.85 184.552 329.85 197.552 328.85 208.552 323.85 218.552 318.85 226.552 312.85 233.552 305.85 239.552 298.85 247.552 295.85 251.552 294.85 255.552 293.85 257.552 293.85 258.552 293.85 259.552 295.85 262.552 299.85 268.552 304.85 275.552 309.85 284.552 314.85 295.552 318.85 305.552 319.85 312.552 319.85 318.552 318.85 323.552 316.85 328.552 311.85 334.552 308.85 340.552 304.85 343.552 301.85 348.552 299.85 352.552 298.85 354.552 297.85 356.552 295.85 358.552 295.85 359.552 294.85 359.552 293.85 360.552 291.85 360.552" id="svg_10"/>
   <polyline fill="none" stroke="black" stroke-width="0.036" stroke-dasharray="null" stroke-linejoin="null" stroke-linecap="round" opacity="0.5" points="172.85 147.552 172.85 148.552 172.85 150.552 172.85 151.552 172.85 152.552 172.85 153.552 172.85 155.552 172.85 156.552 173.85 157.552 173.85 158.552 173.85 159.552 173.85 161.552 173.85 162.552 173.85 164.552 173.85 165.552 173.85 167.552 173.85 168.552 173.85 170.552 173.85 172.552 173.85 173.552 173.85 174.552 173.85 175.552 173.85 177.552 173.85 178.552 173.85 180.552 173.85 181.552 173.85 182.552 173.85 183.552 173.85 185.552 173.85 187.552 173.85 188.552 172.85 189.552 172.85 190.552 172.85 191.552 172.85 193.552 172.85 194.552 172.85 195.552 172.85 196.552 172.85 197.552 172.85 198.552" id="svg_12"/>
   <polyline fill="none" stroke="black" stroke-width="0.036" stroke-dasharray="null" stroke-linejoin="null" stroke-linecap="round" opacity="0.5" points="171.85 152.552 170.85 153.552 170.85 156.552 169.85 159.552 167.85 162.552 166.85 165.552 166.85 166.552 166.85 168.552 166.85 169.552 166.85 171.552 166.85 172.552 166.85 174.552 167.85 176.552 168.85 179.552 170.85 182.552 172.85 185.552 174.85 188.552 175.85 189.552 175.85 190.552 175.85 191.552 176.85 192.552 176.85 193.552 176.85 197.552 176.85 202.552 175.85 208.552 172.85 213.552 169.85 221.552 165.85 228.552 162.85 233.552 158.85 238.552 155.85 242.552 153.85 245.552 151.85 248.552 150.85 250.552 149.85 252.552 148.85 256.552 147.85 258.552 147.85 261.552 147.85 265.552 147.85 268.552 150.85 273.552 152.85 277.552 155.85 281.552 157.85 284.552 158.85 287.552 159.85 287.552 159.85 288.552 159.85 289.552" id="svg_13"/>
   <polyline fill="none" stroke="black" stroke-width="0.036" stroke-dasharray="null" stroke-linejoin="null" stroke-linecap="round" opacity="0.5" points="128.85 115.552 127.85 115.552 126.85 117.552 124.85 120.552 120.85 124.552 117.85 130.552 113.85 139.552 110.85 148.552 108.85 161.552 108.85 172.552 108.85 181.552 110.85 189.552 114.85 196.552 119.85 202.552 124.85 205.552 130.85 209.552 134.85 212.552 137.85 215.552 139.85 218.552 139.85 219.552 139.85 221.552 139.85 225.552 139.85 229.552 139.85 236.552 136.85 245.552 132.85 254.552 126.85 263.552 120.85 273.552 114.85 283.552 110.85 290.552 107.85 295.552 104.85 299.552 103.85 302.552 102.85 306.552 102.85 308.552 102.85 313.552 103.85 317.552 107.85 323.552 111.85 331.552 115.85 337.552 119.85 344.552 121.85 347.552 121.85 348.552 121.85 349.552" id="svg_14"/>
   <polyline fill="none" stroke="black" stroke-width="0.036" stroke-dasharray="null" stroke-linejoin="null" stroke-linecap="round" opacity="0.5" points="208.85 141.552 207.85 141.552 205.85 141.552 204.85 141.552 199.85 141.552 194.85 141.552 186.85 143.552 180.85 147.552 174.85 151.552 170.85 155.552 166.85 161.552 164.85 164.552 163.85 167.552 163.85 171.552 163.85 174.552 164.85 178.552 166.85 183.552 169.85 187.552 174.85 192.552 180.85 197.552 187.85 202.552 192.85 207.552 196.85 211.552 199.85 217.552 202.85 223.552 203.85 230.552 204.85 235.552 204.85 241.552 201.85 247.552 198.85 252.552 195.85 259.552 190.85 264.552 185.85 270.552 177.85 275.552 170.85 280.552 163.85 284.552 155.85 288.552 152.85 289.552 150.85 291.552 149.85 292.552 149.85 293.552 149.85 294.552 149.85 296.552 149.85 299.552 151.85 305.552 155.85 311.552 158.85 316.552 159.85 319.552 159.85 320.552 159.85 321.552 159.85 322.552 159.85 323.552" id="svg_15"/>
   <polyline fill="none" stroke="black" stroke-width="0.036" stroke-dasharray="null" stroke-linejoin="null" stroke-linecap="round" opacity="0.5" points="161.85 117.552 160.85 117.552 158.85 119.552 156.85 121.552 151.85 125.552 144.85 129.552 140.85 135.552 138.85 141.552 136.85 147.552 136.85 153.552 137.85 161.552 142.85 171.552 153.85 182.552 162.85 191.552 172.85 197.552 179.85 205.552 183.85 211.552 184.85 216.552 185.85 222.552 185.85 231.552 180.85 243.552 174.85 253.552 168.85 261.552 163.85 267.552 159.85 270.552 157.85 272.552" id="svg_16"/>
   <polyline fill="none" stroke="black" stroke-width="0.036" stroke-dasharray="null" stroke-linejoin="null" stroke-linecap="round" opacity="0.5" points="186.85 161.552 185.85 161.552 184.85 161.552 183.85 161.552 182.85 162.552 181.85 162.552 181.85 164.552 179.85 164.552 178.85 165.552 177.85 166.552 176.85 167.552 176.85 169.552 176.85 170.552 176.85 171.552 176.85 172.552 176.85 174.552 177.85 178.552 180.85 184.552 186.85 191.552 197.85 204.552 207.85 214.552 215.85 225.552 222.85 235.552 227.85 243.552 229.85 253.552 229.85 258.552 229.85 263.552 227.85 270.552 222.85 279.552 214.85 290.552 206.85 301.552 197.85 311.552 187.85 320.552 175.85 328.552 164.85 335.552 157.85 340.552 150.85 346.552 147.85 349.552 146.85 351.552 145.85 353.552 147.85 355.552 148.85 357.552 150.85 359.552 151.85 359.552 151.85 360.552 151.85 361.552 151.85 362.552 152.85 362.552 153.85 363.552" id="svg_17"/>
   <polyline fill="none" stroke="black" stroke-width="0.036" stroke-dasharray="null" stroke-linejoin="null" stroke-linecap="round" opacity="0.5" points="291.85 73.552 290.85 73.552 289.85 73.552 287.85 75.552 285.85 77.552 283.85 79.552 281.85 81.552 279.85 84.552 276.85 89.552 274.85 92.552 271.85 99.552 267.85 105.552 266.85 112.552 266.85 119.552 269.85 128.552 273.85 136.552 279.85 145.552 287.85 152.552 295.85 157.552 304.85 165.552 309.85 173.552 313.85 181.552 316.85 191.552 316.85 202.552 316.85 216.552 312.85 228.552 304.85 241.552 296.85 252.552 286.85 260.552 270.85 269.552 253.85 277.552 235.85 283.552 218.85 289.552 203.85 293.552 191.85 298.552 184.85 302.552 181.85 303.552" id="svg_18"/>
   <polyline fill="none" stroke="black" stroke-width="0.036" stroke-dasharray="null" stroke-linejoin="null" stroke-linecap="round" opacity="0.5" points="158.85 117.552 157.85 117.552 155.85 118.552 153.85 120.552 149.85 121.552 140.85 125.552 133.85 129.552 127.85 133.552 122.85 138.552 119.85 141.552 118.85 144.552 118.85 145.552 118.85 149.552 120.85 155.552 124.85 159.552 131.85 165.552 141.85 170.552 151.85 176.552 160.85 182.552 168.85 186.552 175.85 193.552 178.85 200.552 180.85 208.552 180.85 216.552 180.85 227.552 176.85 241.552 171.85 254.552 163.85 268.552 156.85 279.552 148.85 287.552 139.85 296.552 132.85 300.552 126.85 304.552 122.85 306.552 121.85 306.552 121.85 307.552 121.85 308.552 121.85 310.552 121.85 313.552 122.85 318.552 126.85 327.552 130.85 334.552 135.85 342.552 139.85 348.552 140.85 351.552" id="svg_19"/>
   <polyline fill="none" stroke="black" stroke-width="0.036" stroke-dasharray="null" stroke-linejoin="null" stroke-linecap="round" opacity="0.5" points="284.85 103.552 283.85 103.552 279.85 105.552 276.85 107.552 269.85 111.552 262.85 116.552 256.85 119.552 250.85 123.552 245.85 126.552 243.85 129.552 242.85 132.552 241.85 134.552 241.85 137.552 241.85 141.552 241.85 147.552 247.85 154.552 255.85 162.552 268.85 170.552 278.85 177.552 286.85 183.552 291.85 187.552 294.85 190.552 295.85 192.552 295.85 195.552 295.85 198.552 295.85 204.552 292.85 211.552 287.85 220.552 280.85 229.552 274.85 236.552 267.85 243.552 259.85 250.552 251.85 255.552 243.85 262.552 234.85 266.552 226.85 270.552 220.85 273.552 216.85 274.552 213.85 276.552 213.85 277.552 212.85 278.552 212.85 279.552 212.85 281.552 212.85 285.552 212.85 289.552 215.85 296.552 217.85 303.552 222.85 312.552 225.85 319.552 228.85 323.552 229.85 327.552" id="svg_20"/>
   <polyline fill="none" stroke="black" stroke-width="0.036" stroke-dasharray="null" stroke-linejoin="null" stroke-linecap="round" opacity="0.5" points="389.85 217.552 384.85 219.552 380.85 221.552 373.85 224.552 367.85 227.552 363.85 230.552 358.85 233.552 353.85 236.552 351.85 238.552 348.85 241.552 346.85 245.552 346.85 248.552 345.85 250.552 345.85 253.552 347.85 257.552 349.85 261.552 353.85 268.552 359.85 276.552 364.85 285.552 366.85 291.552 367.85 297.552 368.85 302.552 368.85 310.552 366.85 316.552 362.85 322.552 358.85 328.552 353.85 333.552 348.85 336.552 343.85 339.552 339.85 340.552 335.85 343.552 331.85 344.552 329.85 345.552 327.85 345.552 326.85 346.552" id="svg_21"/>
   <polyline fill="none" stroke="black" stroke-width="0.036" stroke-dasharray="null" stroke-linejoin="null" stroke-linecap="round" opacity="0.5" points="392.85 279.552 391.85 304.552 390.85 313.552 389.85 320.552 387.85 328.552 385.85 336.552 383.85 342.552 382.85 347.552 380.85 353.552 378.85 357.552 376.85 361.552 374.85 363.552 371.85 365.552 369.85 367.552 366.85 369.552 364.85 369.552 361.85 370.552" id="svg_22"/>
   <polyline fill="none" stroke="black" stroke-width="0.036" stroke-dasharray="null" stroke-linejoin="null" stroke-linecap="round" opacity="0.5" points="154.85 388.552 155.85 389.552 155.85 390.552 157.85 392.552 157.85 393.552 158.85 394.552 159.85 394.552 159.85 396.552 159.85 397.552 159.85 398.552 158.85 398.552 157.85 400.552 156.85 401.552 156.85 402.552 154.85 402.552 154.85 404.552 154.85 405.552 155.85 407.552 157.85 408.552 161.85 409.552 167.85 412.552 176.85 415.552 184.85 417.552 189.85 418.552 193.85 419.552" id="svg_23"/>
   <polyline fill="none" stroke="black" stroke-width="0.036" stroke-dasharray="null" stroke-linejoin="null" stroke-linecap="round" opacity="0.5" points="170.85 126.552 166.85 129.552 164.85 131.552 162.85 133.552 160.85 135.552 158.85 137.552 155.85 140.552 148.85 147.552 142.85 154.552 134.85 162.552 127.85 168.552 122.85 178.552 119.85 189.552 118.85 200.552 121.85 210.552 130.85 222.552 145.85 233.552 159.85 243.552 173.85 251.552 183.85 258.552 189.85 264.552 191.85 270.552 191.85 272.552 190.85 276.552 187.85 284.552 181.85 292.552 173.85 301.552 164.85 312.552 155.85 322.552 147.85 330.552 141.85 338.552 137.85 343.552 134.85 347.552 132.85 349.552 130.85 352.552 130.85 353.552 130.85 354.552" id="svg_24"/>
   <polyline fill="none" stroke="black" stroke-width="0.036" stroke-dasharray="null" stroke-linejoin="null" stroke-linecap="round" opacity="0.5" points="120.85 402.552 120.85 403.552 121.85 404.552 121.85 406.552 122.85 406.552 123.85 408.552 126.85 410.552 128.85 411.552 129.85 413.552 131.85 414.552 132.85 414.552 133.85 414.552 133.85 416.552 134.85 416.552 135.85 417.552 136.85 417.552 137.85 417.552 139.85 419.552 140.85 419.552 141.85 419.552 142.85 420.552 144.85 420.552 147.85 421.552 148.85 421.552 148.85 422.552 152.85 422.552 153.85 422.552 155.85 423.552 158.85 425.552 160.85 425.552 161.85 426.552 163.85 427.552 164.85 428.552 165.85 428.552 166.85 428.552 167.85 429.552 167.85 430.552 168.85 430.552 169.85 431.552 171.85 431.552 172.85 431.552 172.85 433.552 174.85 433.552 175.85 433.552 176.85 433.552 177.85 433.552 178.85 433.552 179.85 433.552 180.85 433.552 180.85 434.552 181.85 434.552 182.85 434.552 183.85 434.552 184.85 434.552 185.85 434.552 185.85 433.552 186.85 433.552 186.85 432.552 187.85 432.552 187.85 431.552 187.85 430.552 188.85 430.552 188.85 429.552 189.85 428.552 190.85 428.552 190.85 426.552 191.85 426.552 192.85 426.552 193.85 425.552 194.85 425.552 195.85 425.552 196.85 425.552 197.85 425.552 198.85 425.552 199.85 425.552 200.85 425.552 202.85 425.552 204.85 425.552 205.85 425.552 207.85 425.552 208.85 425.552 210.85 425.552 211.85 425.552 212.85 425.552 213.85 425.552 215.85 425.552 217.85 425.552 219.85 425.552 220.85 425.552 221.85 425.552 222.85 425.552 224.85 425.552 225.85 425.552 227.85 425.552 228.85 425.552 229.85 425.552 232.85 426.552 233.85 426.552 234.85 426.552 235.85 426.552 236.85 426.552 238.85 427.552 240.85 427.552 242.85 428.552 245.85 428.552 247.85 428.552 249.85 428.552 251.85 428.552 252.85 428.552 253.85 428.552 254.85 428.552 255.85 428.552 257.85 428.552 258.85 428.552 259.85 428.552 260.85 428.552 261.85 428.552 263.85 428.552 264.85 428.552 265.85 428.552 266.85 428.552 270.85 426.552 271.85 426.552 273.85 425.552 274.85 424.552 275.85 424.552 276.85 424.552 277.85 423.552 279.85 422.552 281.85 422.552 283.85 422.552 284.85 421.552 287.85 419.552 290.85 418.552 291.85 417.552 293.85 416.552 294.85 416.552 295.85 416.552 296.85 416.552 297.85 416.552 298.85 416.552 299.85 416.552 300.85 416.552 301.85 416.552 302.85 416.552 302.85 418.552 303.85 418.552 304.85 419.552 305.85 419.552 307.85 421.552 309.85 421.552 311.85 422.552 312.85 422.552 312.85 424.552 314.85 424.552 316.85 424.552 316.85 425.552 318.85 425.552 319.85 425.552 321.85 425.552 322.85 426.552 324.85 426.552 325.85 426.552 326.85 426.552 327.85 426.552 328.85 426.552 329.85 426.552 330.85 425.552 332.85 425.552 334.85 424.552 336.85 423.552 338.85 423.552 339.85 422.552 340.85 422.552 341.85 422.552 342.85 421.552 343.85 421.552" id="svg_25"/>
   <polyline fill="none" stroke="black" stroke-width="0.036" stroke-dasharray="null" stroke-linejoin="null" stroke-linecap="round" opacity="0.5" points="136.85 264.552 137.85 264.552 138.85 264.552 140.85 266.552 144.85 267.552 149.85 268.552 157.85 270.552 164.85 270.552 170.85 272.552 172.85 272.552 173.85 273.552 175.85 273.552 176.85 273.552 177.85 273.552 178.85 273.552 179.85 273.552 180.85 273.552 181.85 274.552 183.85 274.552 184.85 274.552 186.85 274.552 188.85 275.552 191.85 277.552 193.85 277.552 196.85 278.552 200.85 279.552 204.85 280.552 209.85 282.552 214.85 283.552 220.85 284.552 225.85 285.552 231.85 285.552 234.85 286.552 237.85 286.552 238.85 286.552" id="svg_26"/>
   <polyline fill="none" stroke="black" stroke-width="0.036" stroke-dasharray="null" stroke-linejoin="null" stroke-linecap="round" opacity="0.5" points="310.85 267.552 311.85 267.552 313.85 267.552 314.85 267.552 315.85 267.552 316.85 267.552 317.85 267.552 318.85 267.552" id="svg_27"/>
   <polyline fill="none" stroke="black" stroke-width="0.036" stroke-dasharray="null" stroke-linejoin="null" stroke-linecap="round" opacity="0.5" points="157.85 108.552 157.85 110.552 155.85 110.552 154.85 110.552 152.85 111.552 151.85 112.552 148.85 113.552 145.85 115.552 142.85 117.552 139.85 119.552 136.85 121.552 134.85 123.552 133.85 123.552 133.85 125.552 133.85 127.552 133.85 128.552 133.85 131.552 133.85 135.552 133.85 140.552 133.85 146.552 133.85 153.552 133.85 162.552 131.85 173.552 127.85 182.552 124.85 190.552 120.85 198.552 115.85 204.552 111.85 207.552 108.85 210.552 104.85 212.552 101.85 214.552 99.85 214.552 98.85 215.552 97.85 215.552 96.85 215.552 96.85 217.552 96.85 218.552 96.85 219.552 96.85 220.552 96.85 221.552 96.85 222.552 96.85 223.552 96.85 224.552 95.85 226.552 95.85 227.552 93.85 229.552 92.85 231.552 90.85 234.552 88.85 237.552 86.85 240.552 84.85 243.552 83.85 246.552 82.85 248.552 81.85 250.552 81.85 252.552 81.85 253.552 81.85 255.552 81.85 256.552 81.85 257.552 81.85 259.552 81.85 261.552 81.85 262.552 81.85 264.552 81.85 266.552 81.85 268.552 81.85 269.552 81.85 270.552 81.85 271.552" id="svg_35"/>
   <polyline fill="none" stroke="black" stroke-width="0.036" stroke-dasharray="null" stroke-linejoin="null" stroke-linecap="round" opacity="0.5" points="225.85 104.552 224.85 106.552 220.85 110.552 217.85 117.552 212.85 125.552 207.85 133.552 202.85 142.552 199.85 147.552 197.85 150.552 196.85 153.552 194.85 155.552 192.85 157.552 189.85 161.552 185.85 165.552 184.85 168.552 180.85 172.552 177.85 175.552 175.85 175.552 173.85 177.552 170.85 178.552 169.85 178.552 167.85 179.552 166.85 179.552 165.85 180.552 165.85 181.552 160.85 183.552 159.85 184.552 157.85 187.552 155.85 191.552 153.85 197.552 151.85 204.552 148.85 211.552 146.85 219.552 143.85 227.552 141.85 234.552 138.85 242.552 135.85 251.552 131.85 256.552 129.85 261.552 127.85 263.552 125.85 265.552 124.85 266.552 122.85 268.552 120.85 268.552 118.85 268.552 117.85 269.552" id="svg_36"/>
   <polyline fill="none" stroke="black" stroke-width="0.036" stroke-dasharray="null" stroke-linejoin="null" stroke-linecap="round" opacity="0.5" points="209.85 92.552 208.85 92.552 207.85 93.552 205.85 95.552 202.85 97.552 200.85 98.552 196.85 101.552 193.85 103.552 190.85 106.552 186.85 110.552 183.85 112.552 180.85 115.552 179.85 116.552 177.85 118.552 176.85 122.552 175.85 129.552 174.85 134.552 174.85 142.552 175.85 149.552 180.85 158.552 185.85 168.552 188.85 178.552 191.85 188.552 193.85 196.552 193.85 205.552 193.85 218.552 189.85 228.552 183.85 238.552 177.85 248.552 169.85 258.552 159.85 269.552 149.85 279.552 137.85 291.552 128.85 301.552 121.85 309.552 115.85 315.552 113.85 316.552 112.85 317.552 112.85 318.552 111.85 319.552 111.85 321.552 111.85 322.552 111.85 325.552 111.85 327.552 111.85 331.552 115.85 339.552 119.85 345.552 121.85 352.552 123.85 356.552 123.85 357.552 123.85 359.552" id="svg_37"/>
   <polyline fill="none" stroke="black" stroke-width="0.036" stroke-dasharray="null" stroke-linejoin="null" stroke-linecap="round" opacity="0.5" points="145.85 339.552 146.85 339.552 147.85 339.552 148.85 338.552 150.85 337.552 152.85 336.552 155.85 334.552 157.85 332.552 162.85 329.552 167.85 326.552 172.85 322.552 177.85 318.552 181.85 314.552 186.85 307.552 192.85 302.552 194.85 298.552 198.85 292.552 200.85 287.552 204.85 281.552 208.85 272.552 212.85 263.552 215.85 254.552 218.85 242.552 219.85 228.552 220.85 216.552 220.85 207.552 220.85 199.552 220.85 193.552 220.85 185.552 223.85 179.552 225.85 173.552 230.85 166.552 236.85 159.552 244.85 150.552 252.85 143.552 261.85 136.552 267.85 130.552 274.85 125.552 280.85 119.552 283.85 115.552 286.85 111.552 288.85 107.552 289.85 105.552 291.85 101.552 293.85 96.552 293.85 94.552 293.85 91.552 295.85 87.552 296.85 84.552 297.85 82.552 297.85 81.552" id="svg_38"/>
  </g>
  <path fill="none" stroke="black" stroke-width="0.036" stroke-dasharray="null" stroke-linejoin="null" stroke-linecap="null" id="svg_29" d="m202.850006,144.552002c0,-1 -1.128723,-1.869354 -4,-1c-3.450851,1.04483 -6.769516,4.390991 -9,8c-1.662506,2.689987 -2.486252,3.823746 -3,6c-0.229752,0.973251 0,2 0,3c0,2 -0.197083,3.009735 0,5c0.502441,5.074203 5,12 9,20c3,6 6.465515,12.838089 8,18c1.452942,4.887634 1.800919,9.06456 1,14c-1.013077,6.242889 -6.297714,16.391541 -11,24c-2.628662,4.25325 -8.072784,7.881897 -13,11c-3.046722,1.92807 -5.292892,3.292892 -6,4c-0.707108,0.707092 0,2 0,3c0,2 1.194092,5.88855 4,11c3.228043,5.880463 5.972519,11.647491 7,16c0.459503,1.946503 0,4 0,5c0,1 -2,1 -2,2l-1,0l0,1"/>
  <path fill="none" stroke="black" stroke-width="0.036" stroke-dasharray="null" stroke-linejoin="null" stroke-linecap="null" id="svg_30" d="m208.850006,161.552002c1,1 1.410278,2.232956 -1,6c-3.450989,5.393585 -8.731369,11.531479 -13,19c-4.887177,8.550766 -9.426483,16.915726 -11,26c-1.376007,7.94397 -2.608963,15.437195 4,24c7.357407,9.532501 21.263306,17.531616 34,25c11.247421,6.595123 19.917603,11.386871 21,14c0.38269,0.923889 0.80426,3.081696 0,7c-1.531265,7.460236 -7.763809,16.145569 -14,26c-5.784195,9.140198 -11,17 -18,24c-5,5 -9,8 -12,10l-1,0l-3,1l-1,0"/>
  <path fill="none" stroke="black" stroke-width="0.036" stroke-dasharray="null" stroke-linejoin="null" stroke-linecap="null" id="svg_33" d="m157.850006,109.552002c0,1 -0.173096,2.85273 -1,4c-1.307449,1.813995 -1.540497,3.053505 -2,5c-0.513748,2.176254 -2.292892,2.292885 -3,3c-1.414215,1.414215 -0.693436,3.458801 -2,4c-0.923874,0.382675 -2.458801,1.693436 -3,3c-0.38269,0.923874 -0.292892,2.292892 -1,3c-0.707108,0.707108 -0.292892,1.292892 -1,2c-0.707108,0.707108 -2.292892,4.292892 -3,5c-1.414215,1.414215 -2.346191,0.70546 -4,3c-1.307449,1.813995 -1.61731,3.076126 -2,4c-0.541199,1.306564 -2.458801,1.693436 -3,3c-0.765366,1.847763 -2,3 -4,5c-1.999992,2 -3.74675,4.371338 -7.999992,7c-1.902122,1.175568 -2.097893,3.824432 -4,5c-1.701317,1.051468 -2.458817,0.693436 -3,2c-0.38269,0.923874 -2,1 -2,2c0,1 -0.234642,1.152237 -1,3c-0.541206,1.306564 -2,2 -3,3c-2,2 -2.211685,2.714127 -5,5c-1.093681,0.896591 -1,2 -1,3l-2,0"/>
  <path fill="none" stroke="black" stroke-width="0.036" stroke-dasharray="null" stroke-linejoin="null" stroke-linecap="null" id="svg_34" d="m154.850006,111.552002c0,1 0,2 -1,3c-1,1 -1.292892,1.292885 -2,2c-1.414215,1.414215 -0.61731,2.076118 -1,3c-0.541199,1.306564 -1.173096,1.85273 -2,3c-1.307449,1.813995 -1.513,2.594002 -3,5c-1.662506,2.689987 -2.885956,4.27742 -6,9c-2.964478,4.495758 -4.385101,9.372009 -7,13c-1.653809,2.29454 -4.346191,4.70546 -5.999992,7c-1.307457,1.813995 -2.20681,3.812653 -4,6c-2.285881,2.78833 -3.410927,5.692383 -8,9c-1.814003,1.307449 -5,5 -7,7c-3,3 -5,4 -6,6l-1,1l-2,2"/>
 </g>
</svg>